<svg width="20" height="20" viewBox="0 0 20 20" fill="none" xmlns="http://www.w3.org/2000/svg">
<path d="M9.52434 2C5.92135 2 3 4.94798 3 8.58382C3 11.6301 7.72285 17.2312 9.13483 18.8035C9.32959 19.0491 9.67041 19.0491 9.91386 18.8035C11.2772 17.2312 16 11.6301 16 8.58382C16 4.94798 13.0787 2 9.52434 2ZM9.52434 11.4827C7.77154 11.4827 6.31086 10.0087 6.31086 8.23988C6.31086 6.4711 7.77154 4.99711 9.52434 4.99711C11.2772 4.99711 12.7378 6.4711 12.7378 8.23988C12.7378 10.0578 11.2772 11.4827 9.52434 11.4827Z" fill="#FFB21C"/>
</svg>
