<svg width="331" height="6" viewBox="0 0 331 6" fill="none" xmlns="http://www.w3.org/2000/svg">
<g clip-path="url(#clip0_836_6211)">
<path fill-rule="evenodd" clip-rule="evenodd" d="M337.014 0L338 0V6H337.014C335.357 6 334.014 4.65685 334.014 3C334.014 1.34315 335.357 0 337.014 0ZM328.186 3C328.186 4.65685 326.843 6 325.186 6H323.214C321.557 6 320.214 4.65685 320.214 3C320.214 1.34315 321.557 0 323.214 0L325.186 0C326.843 0 328.186 1.34315 328.186 3ZM314.386 3C314.386 4.65685 313.043 6 311.386 6H309.414C307.757 6 306.414 4.65685 306.414 3C306.414 1.34315 307.757 0 309.414 0L311.386 0C313.043 0 314.386 1.34315 314.386 3ZM300.586 3C300.586 4.65685 299.243 6 297.586 6H295.614C293.957 6 292.614 4.65685 292.614 3C292.614 1.34315 293.957 0 295.614 0L297.586 0C299.243 0 300.586 1.34315 300.586 3ZM286.786 3C286.786 4.65685 285.443 6 283.786 6H281.814C280.157 6 278.814 4.65685 278.814 3C278.814 1.34315 280.157 0 281.814 0L283.786 0C285.443 0 286.786 1.34315 286.786 3ZM272.986 3C272.986 4.65685 271.643 6 269.986 6H268.014C266.357 6 265.014 4.65685 265.014 3C265.014 1.34315 266.357 0 268.014 0L269.986 0C271.643 0 272.986 1.34315 272.986 3ZM259.186 3C259.186 4.65685 257.843 6 256.186 6H254.214C252.557 6 251.214 4.65685 251.214 3C251.214 1.34315 252.557 0 254.214 0L256.186 0C257.843 0 259.186 1.34315 259.186 3ZM245.386 3C245.386 4.65685 244.043 6 242.386 6H240.414C238.757 6 237.414 4.65685 237.414 3C237.414 1.34315 238.757 0 240.414 0L242.386 0C244.043 0 245.386 1.34315 245.386 3ZM231.586 3C231.586 4.65685 230.243 6 228.586 6H226.614C224.957 6 223.614 4.65685 223.614 3C223.614 1.34315 224.957 0 226.614 0L228.586 0C230.243 0 231.586 1.34315 231.586 3ZM217.786 3C217.786 4.65685 216.443 6 214.786 6L212.814 6C211.157 6 209.814 4.65685 209.814 3C209.814 1.34315 211.157 0 212.814 0L214.786 0C216.443 0 217.786 1.34315 217.786 3ZM203.986 3C203.986 4.65685 202.643 6 200.986 6L199.014 6C197.357 6 196.014 4.65685 196.014 3C196.014 1.34315 197.357 0 199.014 0L200.986 0C202.643 0 203.986 1.34315 203.986 3ZM190.186 3C190.186 4.65685 188.843 6 187.186 6L185.214 6C183.557 6 182.214 4.65685 182.214 3C182.214 1.34315 183.557 0 185.214 0L187.186 0C188.843 0 190.186 1.34315 190.186 3ZM176.386 3C176.386 4.65685 175.043 6 173.386 6H171.414C169.757 6 168.414 4.65685 168.414 3C168.414 1.34315 169.757 0 171.414 0L173.386 0C175.043 0 176.386 1.34315 176.386 3ZM162.586 3C162.586 4.65685 161.243 6 159.586 6H157.614C155.957 6 154.614 4.65685 154.614 3C154.614 1.34315 155.957 0 157.614 0L159.586 0C161.243 0 162.586 1.34315 162.586 3ZM148.786 3C148.786 4.65685 147.443 6 145.786 6H143.814C142.157 6 140.814 4.65685 140.814 3C140.814 1.34315 142.157 0 143.814 0L145.786 0C147.443 0 148.786 1.34315 148.786 3ZM134.986 3C134.986 4.65685 133.643 6 131.986 6H130.014C128.357 6 127.014 4.65685 127.014 3C127.014 1.34315 128.357 0 130.014 0L131.986 0C133.643 0 134.986 1.34315 134.986 3ZM121.186 3C121.186 4.65685 119.843 6 118.186 6H116.214C114.557 6 113.214 4.65685 113.214 3C113.214 1.34315 114.557 0 116.214 0L118.186 0C119.843 0 121.186 1.34315 121.186 3ZM107.386 3C107.386 4.65685 106.043 6 104.386 6H102.414C100.757 6 99.4142 4.65685 99.4142 3C99.4142 1.34315 100.757 0 102.414 0L104.386 0C106.043 0 107.386 1.34315 107.386 3ZM93.5857 3C93.5857 4.65685 92.2426 6 90.5857 6H88.6142C86.9574 6 85.6142 4.65685 85.6142 3C85.6142 1.34315 86.9574 0 88.6142 0L90.5857 0C92.2426 0 93.5857 1.34315 93.5857 3ZM79.7857 3C79.7857 4.65685 78.4425 6 76.7857 6H74.8143C73.1574 6 71.8143 4.65685 71.8143 3C71.8143 1.34315 73.1574 0 74.8143 0L76.7857 0C78.4425 0 79.7857 1.34315 79.7857 3ZM65.9857 3C65.9857 4.65685 64.6425 6 62.9857 6H61.0142C59.3574 6 58.0142 4.65685 58.0142 3C58.0142 1.34315 59.3574 0 61.0142 0L62.9857 0C64.6425 0 65.9857 1.34315 65.9857 3ZM52.1857 3C52.1857 4.65685 50.8425 6 49.1857 6H47.2142C45.5574 6 44.2142 4.65685 44.2142 3C44.2142 1.34315 45.5574 0 47.2142 0L49.1857 0C50.8425 0 52.1857 1.34315 52.1857 3ZM38.3856 3C38.3856 4.65685 37.0425 6 35.3856 6H33.4142C31.7574 6 30.4142 4.65685 30.4142 3C30.4142 1.34315 31.7574 0 33.4142 0L35.3856 0C37.0425 0 38.3856 1.34315 38.3856 3ZM24.5856 3C24.5856 4.65685 23.2425 6 21.5856 6H19.6142C17.9573 6 16.6142 4.65685 16.6142 3C16.6142 1.34315 17.9573 0 19.6142 0L21.5856 0C23.2425 0 24.5856 1.34315 24.5856 3ZM10.7856 3C10.7856 4.65685 9.44244 6 7.78558 6H5.81415C4.15732 6 2.81415 4.65685 2.81415 3C2.81415 1.34315 4.15732 0 5.81415 0L7.78558 0C9.44244 0 10.7856 1.34315 10.7856 3ZM-3.0144 3C-3.0144 4.65685 -4.35757 6 -6.0144 6H-7V0L-6.0144 0C-4.35757 0 -3.0144 1.34315 -3.0144 3Z" fill="white"/>
</g>
<defs>
<clipPath id="clip0_836_6211">
<rect width="331" height="6" fill="white"/>
</clipPath>
</defs>
</svg>
