<?xml version="1.0" encoding="utf-8"?><svg viewBox="0 0 502.66 502.66" xmlns="http://www.w3.org/2000/svg" xmlns:xlink="http://www.w3.org/1999/xlink"><style>:root>svg{display:none}:root>svg:target{display:block}</style><svg viewBox="0 0 10 6" id="arrow" xmlns="http://www.w3.org/2000/svg"><path fill-rule="evenodd" clip-rule="evenodd" d="M.482.882a.45.45 0 01.636 0L5 4.764 8.882.882a.45.45 0 11.636.636l-4.2 4.2a.45.45 0 01-.636 0l-4.2-4.2a.45.45 0 010-.636z"/></svg><svg viewBox="0 0 20 20" id="arrow-left" xmlns="http://www.w3.org/2000/svg"><path fill-rule="evenodd" clip-rule="evenodd" d="M10.53 4.47a.75.75 0 00-1.06 0l-5 5a.75.75 0 000 1.06l5 5a.75.75 0 101.06-1.06l-3.72-3.72H17a.75.75 0 000-1.5H6.81l3.72-3.72a.75.75 0 000-1.06z"/></svg><svg viewBox="0 0 25 25" id="arrow-right" xmlns="http://www.w3.org/2000/svg"><path fill-rule="evenodd" clip-rule="evenodd" d="M14.337 5.587a.937.937 0 011.326 0l6.25 6.25a.937.937 0 010 1.326l-6.25 6.25a.937.937 0 01-1.326-1.326l4.65-4.65H6.25a.937.937 0 110-1.874h12.737l-4.65-4.65a.938.938 0 010-1.326z"/></svg><svg viewBox="0 0 20 20" id="calendar" xmlns="http://www.w3.org/2000/svg"><path fill-rule="evenodd" clip-rule="evenodd" d="M14.63 1.754a.918.918 0 00-.272-.651.928.928 0 00-1.58.651H7.222a.919.919 0 00-.27-.651.928.928 0 00-1.582.651H2.593a.928.928 0 00-.655.27.919.919 0 00-.271.651V15.57c0 .733.292 1.436.813 1.954a2.787 2.787 0 001.965.809h11.11c.737 0 1.444-.291 1.965-.81a2.756 2.756 0 00.813-1.953V2.675a.918.918 0 00-.27-.651.928.928 0 00-.655-.27H14.63zM6.296 4.517a.928.928 0 01-.654-.27.919.919 0 01-.272-.65H3.52v1.841h12.963V3.596H14.63a.918.918 0 01-.272.651.928.928 0 01-1.58-.65H7.222a.919.919 0 01-.27.65.928.928 0 01-.656.27zm1.852 6.448a.928.928 0 00-.654.27.919.919 0 00.654 1.572h3.704a.928.928 0 00.655-.27.919.919 0 00-.655-1.572H8.148z"/></svg><svg viewBox="0 0 20 20" id="cancel" xmlns="http://www.w3.org/2000/svg"><path fill-rule="evenodd" clip-rule="evenodd" d="M4.47 4.47a.75.75 0 011.06 0L10 8.94l4.47-4.47a.75.75 0 111.06 1.06L11.06 10l4.47 4.47a.75.75 0 11-1.06 1.06L10 11.06l-4.47 4.47a.75.75 0 01-1.06-1.06L8.94 10 4.47 5.53a.75.75 0 010-1.06z"/></svg><svg viewBox="0 0 41 45" id="close" xmlns="http://www.w3.org/2000/svg"><path d="M10.439 33.376l19.868-21.752M30.307 33.808L10.439 12.056"/></svg><svg viewBox="0 0 50 50" id="close-menu" xmlns="http://www.w3.org/2000/svg"><path d="M12.744 37.184l24.44-24.701M37.184 37.443l-24.44-24.7"/></svg><svg viewBox="0 0 20 20" id="geo-location" xmlns="http://www.w3.org/2000/svg"><path d="M9.524 2C5.921 2 3 4.948 3 8.584c0 3.046 4.723 8.647 6.135 10.22.195.245.535.245.779 0C11.277 17.23 16 11.63 16 8.583 16 4.948 13.079 2 9.524 2zm0 9.483c-1.752 0-3.213-1.474-3.213-3.243s1.46-3.243 3.213-3.243c1.753 0 3.214 1.474 3.214 3.243a3.225 3.225 0 01-3.214 3.243z"/></svg><svg viewBox="0 0 502.664 502.664" id="icon" xmlns="http://www.w3.org/2000/svg"><path d="M153.821 358.226L0 274.337v-46.463l153.821-83.414v54.574L46.636 250.523l107.185 53.431v54.272zm26.273 29.358L282.103 115.08h32.227L212.084 387.584h-31.99zm168.749-29.358v-54.272l107.164-52.999-107.164-52.59v-53.927l153.821 83.522v46.183l-153.821 84.083z"/></svg><svg viewBox="0 0 133 38" id="logo" xmlns="http://www.w3.org/2000/svg"><path d="M55.203 24.631h3.91V4.962c0-.401-.573-.59-1.645-.614-.143 0-.191-.141-.191-.212h17.805c.453 0 .882-.166 1.191-.472a1.78 1.78 0 00.5-1.04V.807H55.228v11.641c.215.142.43.307.62.496a4.015 4.015 0 011.191 2.857c0 1.11-.452 2.125-1.191 2.88-.19.19-.382.355-.62.497v5.454h-.024zm0-9.398v1.134a2.306 2.306 0 000-1.134zM31.607 7.371H19.355v17.26h3.91v-5.454h8.365c.453 0 .882-.166 1.192-.473.262-.26.405-.566.477-.897V8.74a1.516 1.516 0 00-.477-.897 1.784 1.784 0 00-1.215-.472zm1.74-6.8H3.838c-.453 0-.882.165-1.192.472-.31.307-.5.732-.5 1.18v1.7h9.557v20.779h3.933V4.726c0-.401-.572-.59-1.645-.614-.143 0-.19-.142-.19-.212h17.852c.453 0 .882-.166 1.192-.473.31-.307.5-.732.5-1.18V.57zm-4.22 15.253h-5.886v-5.1h6.125v4.297h.024c0 .401.572.59 1.645.614.142 0 .19.142.19.212-.691-.023-1.382-.023-2.097-.023zm17.52 6.375v.779c0 .449.19.874.5 1.18.31.308.739.473 1.192.473h2.216v-5.525a4.76 4.76 0 01-.524-.449 4.015 4.015 0 01-1.192-2.857c0-1.11.453-2.125 1.192-2.857a4.78 4.78 0 01.524-.448V7.37h-3.908v11.145l-8.033 2.432V7.37h-3.909v15.607c0 .449.19.874.5 1.18.31.308.74.473 1.192.473h2.217l8.033-2.432zM75.082 7.371H62.854v17.26h3.885v-5.454h8.343a1.68 1.68 0 001.191-.473c.31-.306.5-.732.5-1.18V9.023c0-.448-.19-.873-.5-1.18a1.684 1.684 0 00-1.191-.472zm-2.48 8.453H66.74v-5.1h6.126v4.297c0 .401.572.59 1.645.614.143 0 .19.142.19.212-.69-.023-1.382-.023-2.097-.023zm15.613-8.43v7.556c0 .402.572.59 1.644.614.143 0 .191.142.191.213h-7.937V7.394H78.18v10.083h.024c0 .448.167.873.5 1.204.31.307.74.472 1.192.472h8.319v2.172h-9.987v1.677c0 .449.19.873.5 1.18.31.307.74.473 1.192.473h10.535c.453 0 .882-.166 1.192-.473.31-.306.5-.731.5-1.18V7.394h-3.932zm5.982 1.653v15.608h3.91V10.723h7.913c0 .071-.072.19-.191.213-1.073.047-1.645.213-1.645.614v13.105h3.885V9.047c0-.449-.19-.874-.5-1.18a1.684 1.684 0 00-1.192-.473H95.866c-.453 0-.882.166-1.192.472-.31.307-.477.732-.477 1.181zm15.97 0v15.608h3.909V10.723h7.913c0 .071-.072.19-.191.213-1.072.047-1.644.213-1.644.614v13.105h3.885V9.07a1.67 1.67 0 00-.501-1.205 1.683 1.683 0 00-1.191-.472h-10.512a1.68 1.68 0 00-1.191.472c-.31.307-.477.732-.477 1.181z"/><path fill-rule="evenodd" clip-rule="evenodd" d="M3.218 12.612c1.787 0 3.241 1.417 3.241 3.188 0 1.77-1.454 3.188-3.241 3.188C1.454 18.988 0 17.57 0 15.8c0-1.771 1.454-3.188 3.218-3.188zm126.564 0c1.788 0 3.218 1.44 3.218 3.188 0 1.77-1.454 3.188-3.218 3.188-1.787 0-3.218-1.44-3.218-3.188-.023-1.771 1.431-3.188 3.218-3.188zm-76.869 0c1.788 0 3.218 1.44 3.218 3.188 0 1.77-1.454 3.188-3.218 3.188-1.788 0-3.218-1.44-3.218-3.188 0-1.771 1.43-3.188 3.218-3.188z"/><path d="M7.865 29.778H8.89v2.361a.51.51 0 00.286-.07c.072-.048.167-.119.262-.237l1.907-2.054h1.24l-2.503 2.574c.095.024.238.118.429.307.19.189.453.472.834.874l1.526 1.7h-1.264l-1.501-1.7c-.215-.237-.405-.425-.596-.544-.143-.094-.262-.165-.31-.165-.072-.023-.12-.023-.19-.023h-.12v2.455H7.865v-5.478zm8.056 5.573c-.476 0-.858-.024-1.096-.047-.238-.024-.477-.119-.739-.213a1.11 1.11 0 01-.548-.543c-.12-.26-.167-.59-.167-1.015v-1.89c0-.33.048-.637.12-.897a1.227 1.227 0 01.858-.897c.238-.07.476-.118.714-.142.263-.023.549-.023.858-.023.406 0 .692 0 .882.023.191.024.406.048.644.118.238.071.405.166.548.307.12.142.238.331.334.59.071.26.119.567.119.922v1.889c0 .637-.143 1.11-.453 1.393-.12.118-.286.212-.524.283a3.58 3.58 0 01-.715.142c-.262-.024-.549 0-.835 0zm0-.685c.31 0 .549 0 .692-.024.143-.023.286-.047.429-.118a.519.519 0 00.286-.307 1.8 1.8 0 00.095-.59v-2.22c0-.33-.048-.59-.12-.732-.07-.165-.214-.26-.428-.306-.19-.048-.524-.071-.93-.071-.429 0-.739.023-.93.07a.64.64 0 00-.428.308c-.096.165-.12.4-.12.732v2.219c0 .236.024.449.096.59a.519.519 0 00.286.307.976.976 0 00.429.118c.095.024.334.024.643.024zm4.124-4.888h1.025v2.267h2.717v-2.267h1.025v5.455h-1.025v-2.456H21.07v2.456h-1.025v-5.455zm11.25 5.455h-4.672v-5.455h1.025v4.699h2.718v-4.699h1.024v4.699h.763v2.149h-.882v-1.393h.024zm4.433.118c-1.692 0-2.526-.567-2.526-1.677v-2.148c0-.662.19-1.134.572-1.417.381-.284 1.001-.425 1.859-.425.81 0 1.406.141 1.764.425.357.283.548.755.548 1.44v1.204h-3.694v.827c0 .378.143.637.405.803.262.165.667.236 1.24.236.524 0 1.143-.095 1.858-.26v.78c-.738.117-1.406.212-2.026.212zm1.192-3.282v-.85c0-.331-.095-.567-.31-.685-.19-.118-.548-.19-1.025-.19-.476 0-.81.072-1.025.19-.214.118-.31.354-.31.685v.85h2.67zm2.574-2.29h1.025v.59c.096-.473.715-.709 1.883-.709.691 0 1.216.142 1.573.425.358.284.525.661.525 1.11v2.243c0 .33-.048.614-.143.85a1.407 1.407 0 01-.382.567 1.628 1.628 0 01-.572.307c-.238.07-.476.118-.715.142-.214.023-.477.023-.763.023-.333 0-.643-.047-.905-.118-.286-.07-.453-.189-.525-.354v2.574h-1.024v-7.65h.023zm2.48 4.863c.404 0 .69-.023.905-.094a.713.713 0 00.453-.307c.095-.142.143-.378.143-.685V31.55c0-.33-.048-.59-.143-.755a.663.663 0 00-.453-.331 4.232 4.232 0 00-.906-.095c-.405 0-.715.024-.906.095a.663.663 0 00-.452.33c-.096.166-.144.426-.144.756v2.007c0 .307.048.52.144.685.095.165.238.26.452.307.215.07.501.094.906.094zm5.481-4.132h-1.93v-.732h4.886v.732h-1.93v4.699h-1.026V30.51zm4.195-.732h1.025v2.267h2.717v-2.267h1.025v5.455h-1.025v-2.456h-2.717v2.456H51.65v-5.455zm8.843 5.573c-.477 0-.858-.024-1.096-.047-.239-.024-.477-.119-.74-.213a1.11 1.11 0 01-.547-.543c-.12-.26-.167-.59-.167-1.015v-1.89c0-.33.047-.637.119-.897.071-.26.19-.448.334-.59.119-.118.285-.236.524-.307.238-.07.477-.118.715-.142.262-.023.548-.023.858-.023.405 0 .691 0 .882.023.19.024.405.048.643.118.239.071.406.166.549.307.119.142.238.331.333.59.072.26.12.567.12.922v1.889c0 .637-.144 1.11-.453 1.393-.12.118-.286.212-.525.283-.238.07-.453.118-.715.142-.262-.024-.548 0-.834 0zm0-.685c.31 0 .548 0 .691-.024.143-.023.286-.047.43-.118a.519.519 0 00.285-.307 1.77 1.77 0 00.096-.59v-2.22c0-.33-.048-.59-.12-.732-.071-.165-.214-.26-.429-.306-.19-.048-.524-.071-.93-.071-.428 0-.738.023-.929.07a.64.64 0 00-.429.308c-.095.165-.119.4-.119.732v2.219c0 .236.024.449.095.59a.519.519 0 00.286.307.976.976 0 00.43.118c.095.024.333.024.643.024zm6.46.685c-1.693 0-2.527-.567-2.527-1.677v-2.148c0-.662.19-1.134.572-1.417.381-.284 1-.425 1.859-.425.81 0 1.406.141 1.764.425.357.283.548.755.548 1.44v1.204h-3.694v.827c0 .378.143.637.405.803.262.165.667.236 1.24.236.523 0 1.143-.095 1.858-.26v.78c-.739.117-1.406.212-2.026.212zm1.167-3.282v-.85c0-.331-.095-.567-.31-.685-.19-.118-.548-.19-1.025-.19-.476 0-.81.072-1.025.19-.214.118-.31.354-.31.685v.85h2.67zm6.912 3.282c-.524 0-.93-.047-1.215-.142-.286-.094-.5-.26-.62-.52-.12-.236-.19-.613-.19-1.062 0-.401.047-.732.166-.968a.968.968 0 01.596-.496c.286-.094.691-.142 1.216-.142h1.644v-.873a.862.862 0 00-.119-.473c-.071-.118-.214-.188-.405-.236-.19-.047-.453-.07-.81-.07-.573 0-1.192.047-1.883.141v-.732c.738-.07 1.43-.094 2.025-.094.644 0 1.097.047 1.407.141.31.095.5.26.62.496.119.236.166.59.166 1.086v3.85h-1v-.52c-.025.401-.597.614-1.598.614zm.167-.685c.382 0 .691-.024.954-.07.333-.072.5-.237.5-.473v-1.488H75.08c-.334 0-.572.024-.715.071a.428.428 0 00-.286.283c-.048.142-.072.355-.072.662 0 .26.024.472.072.613.048.142.143.26.286.307.143.071.334.095.62.095h.214zm4.314-4.888h3.6v.732h-2.575v4.699h-1.025v-5.43zm7.032 5.573c-1.693 0-2.527-.567-2.527-1.677v-2.148c0-.662.19-1.134.572-1.417.382-.284 1.001-.425 1.86-.425.81 0 1.406.141 1.763.425.358.283.548.755.548 1.44v1.204h-3.694v.827c0 .378.143.637.405.803.262.165.667.236 1.24.236.524 0 1.144-.095 1.859-.26v.78c-.74.117-1.407.212-2.026.212zm1.191-3.282v-.85c0-.331-.095-.567-.31-.685-.19-.118-.548-.19-1.024-.19-.477 0-.81.072-1.025.19-.215.118-.31.354-.31.685v.85h2.67zm2.575-2.29h1.024v2.266h2.718v-2.267h1.025v5.455h-1.025v-2.456h-2.718v2.456h-1.024v-5.455zm7.913.731h-1.93v-.732h4.885v.732h-1.93v4.699h-1.025V30.51zm6.388 4.84c-.382 0-.644 0-.835-.023-.166-.023-.357-.047-.596-.118-.238-.07-.405-.142-.548-.26a1.786 1.786 0 01-.333-.52c-.096-.235-.143-.495-.143-.85v-2.006c0-.614.119-1.04.357-1.299.119-.142.262-.26.381-.354.143-.07.31-.142.525-.165a23 23 0 00.572-.071c.167 0 .405-.024.715-.024.524 0 1.049.047 1.573.165v.732c-.596-.141-1.168-.236-1.692-.236-.405 0-.691.024-.882.095a.567.567 0 00-.382.307c-.071.141-.119.378-.119.66v2.22c0 .284.048.496.119.614.072.142.215.236.43.284.214.047.524.094.929.094.548 0 1.097-.07 1.669-.212v.755c-.501.142-1.073.213-1.74.213zm4.457-4.84h-1.931v-.732h4.886v.732h-1.93v4.699h-1.025V30.51zm4.242-.732h2.408c.5 0 .882.024 1.191.095.286.047.501.141.644.283.119.118.215.26.238.401.048.142.048.331.048.567v.189c0 .283-.071.52-.238.661-.143.142-.406.26-.763.33v.048c.882.142 1.311.52 1.311 1.133v.33c0 .379-.072.662-.215.85-.143.213-.381.355-.739.45-.333.094-.81.141-1.43.141h-2.478v-5.478h.023zm2.503 2.29c.31 0 .524-.023.691-.07.143-.047.262-.118.31-.236.048-.118.072-.284.072-.496v-.071c0-.213-.024-.354-.096-.449-.047-.094-.167-.165-.31-.212-.166-.047-.381-.071-.691-.071h-1.454v1.606h1.478zm.024 2.433c.357 0 .62-.024.81-.071.191-.047.31-.118.382-.213.071-.094.095-.26.095-.448v-.378a.551.551 0 00-.238-.472c-.167-.118-.501-.19-1.001-.19h-1.574v1.748h1.526v.024zm6.245.85c-.477 0-.858-.024-1.097-.047-.238-.024-.476-.119-.739-.213a1.11 1.11 0 01-.548-.543c-.119-.26-.167-.59-.167-1.015v-1.89c0-.33.048-.637.119-.897.072-.26.191-.448.334-.59.119-.118.286-.236.525-.307a3.81 3.81 0 01.715-.142c.262-.023.548-.023.858-.023.405 0 .691 0 .882.023.19.024.405.048.643.118.238.071.405.166.548.307.119.142.239.331.334.59.071.26.119.567.119.922v1.889c0 .637-.143 1.11-.453 1.393-.119.118-.286.212-.524.283-.238.07-.453.118-.715.142-.262-.024-.548 0-.834 0zm0-.685c.31 0 .548 0 .691-.024.143-.023.286-.047.429-.118a.52.52 0 00.286-.307 1.78 1.78 0 00.095-.59v-2.22c0-.33-.047-.59-.119-.732-.071-.165-.214-.26-.429-.306-.191-.048-.524-.071-.93-.071-.429 0-.738.023-.929.07a.639.639 0 00-.429.308c-.095.165-.119.4-.119.732v2.219c0 .236.024.449.095.59a.52.52 0 00.286.307.976.976 0 00.429.118c.095.024.334.024.644.024z"/></svg><svg viewBox="0 0 9 16" id="ok" xmlns="http://www.w3.org/2000/svg"><path d="M6.027 11.232c.052.054.088.094.124.129.674.65 1.35 1.295 2.018 1.948.554.541.438 1.377-.233 1.74a1.158 1.158 0 01-1.35-.195 665.463 665.463 0 01-1.998-1.93c-.036-.035-.072-.067-.122-.112-.044.04-.089.075-.13.115-.668.642-1.33 1.29-2.001 1.927-.635.605-1.663.343-1.893-.484-.111-.4-.003-.76.302-1.055.673-.653 1.352-1.307 2.029-1.96.038-.037.074-.075.124-.128l-.43-.118a7.227 7.227 0 01-1.812-.784c-.449-.273-.638-.771-.482-1.256a1.1 1.1 0 011.13-.75c.19.014.394.078.558.174.923.539 1.92.771 2.99.696a4.95 4.95 0 002.201-.693c.73-.434 1.583-.07 1.744.742.077.388-.125.835-.488 1.063a7.32 7.32 0 01-2.123.883 1.588 1.588 0 01-.158.048zM4.466.711C6.5.685 8.33 2.301 8.327 4.443 8.324 6.53 6.559 8.183 4.411 8.17 2.307 8.156.575 6.472.594 4.406.61 2.266 2.443.682 4.466.71zm-.017 5.282c.898 0 1.622-.682 1.625-1.536.002-.873-.724-1.583-1.62-1.58-.88.003-1.612.71-1.612 1.56 0 .855.72 1.554 1.607 1.556z"/></svg><svg viewBox="0 0 20 17" id="search" xmlns="http://www.w3.org/2000/svg"><path fill-rule="evenodd" clip-rule="evenodd" d="M11.495 8.598a4.364 4.364 0 11-8.346-2.552 4.364 4.364 0 018.346 2.552zm-.58 3.359a5.864 5.864 0 111.064-1.069l4.498 3.617a.75.75 0 11-.94 1.169l-4.623-3.717z"/></svg><svg viewBox="0 0 21 20" id="tg" xmlns="http://www.w3.org/2000/svg"><path d="M17.478 4.262c-.067-.161-.134-.202-.222-.222-.245-.1-.645.02-.645.02S2.592 8.646 1.793 9.151c-.178.101-.223.182-.267.243-.133.363.289.525.289.525l3.621 1.07s.134.021.178 0c.822-.464 8.265-4.747 8.687-4.888.066-.02.11 0 .11.04-.177.546-6.642 5.778-6.642 5.778s-.022.02-.044.06l-.334 3.253s-.133.99.956 0c.777-.707 1.533-1.293 1.888-1.575 1.266.767 2.6 1.636 3.177 2.08.289.223.533.263.733.263.556-.02.711-.566.711-.566s2.533-9.353 2.622-10.606c0-.121.022-.202.022-.283 0-.121 0-.222-.022-.283z"/></svg><svg viewBox="0 0 21 20" id="vk" xmlns="http://www.w3.org/2000/svg"><path d="M18.485 15.158h-1.9c-.72 0-.936-.583-2.226-1.873-1.126-1.085-1.602-1.22-1.887-1.22-.394 0-.502.108-.502.65v1.71c0 .463-.15.734-1.358.734a7.417 7.417 0 01-5.796-3.475 15.15 15.15 0 01-3-6.299c0-.285.109-.543.652-.543h1.9c.488 0 .664.217.856.72.922 2.715 2.496 5.077 3.136 5.077.245 0 .351-.109.351-.72V7.123c-.08-1.276-.758-1.384-.758-1.845a.47.47 0 01.487-.436h2.987c.408 0 .543.203.543.692v3.775c0 .407.175.542.299.542.245 0 .433-.135.882-.583a15.636 15.636 0 002.335-3.884.818.818 0 01.828-.541h1.9c.57 0 .691.285.57.691a23.722 23.722 0 01-2.551 4.385c-.205.313-.287.476 0 .842.188.285.855.842 1.302 1.371a8.46 8.46 0 011.602 2.225c.163.53-.11.8-.652.8z"/></svg></svg>