<svg width="3" height="250" viewBox="0 0 3 250" fill="none" xmlns="http://www.w3.org/2000/svg">
<g clip-path="url(#clip0_832_6209)">
<path fill-rule="evenodd" clip-rule="evenodd" d="M4.37114e-08 -7L0 -8L6 -8L6 -7C6 -5.34315 4.65685 -4 3 -4C1.34315 -4 1.16135e-07 -5.34315 4.37114e-08 -7ZM3 2C4.65685 2 6 3.34315 6 5L6 7C6 8.65685 4.65686 10 3 10C1.34315 10 7.28094e-07 8.65685 6.55671e-07 7L5.68248e-07 5C4.95825e-07 3.34315 1.34315 2 3 2ZM3 16C4.65686 16 6 17.3431 6 19L6 21C6 22.6569 4.65686 24 3 24C1.34315 24 1.34005e-06 22.6569 1.26763e-06 21L1.18021e-06 19C1.10778e-06 17.3431 1.34315 16 3 16ZM3 30C4.65686 30 6 31.3431 6 33L6 35C6 36.6569 4.65686 38 3 38C1.34315 38 1.95201e-06 36.6569 1.87959e-06 35L1.79217e-06 33C1.71974e-06 31.3431 1.34315 30 3 30ZM3 44C4.65686 44 6 45.3431 6 47L6 49C6 50.6569 4.65686 52 3 52C1.34315 52 2.56397e-06 50.6569 2.49155e-06 49L2.40413e-06 47C2.3317e-06 45.3431 1.34315 44 3 44ZM3 58C4.65686 58 6 59.3431 6 61L6 63C6 64.6569 4.65686 66 3 66C1.34315 66 3.17593e-06 64.6569 3.10351e-06 63L3.01609e-06 61C2.94366e-06 59.3431 1.34315 58 3 58ZM3 72C4.65686 72 6 73.3431 6 75L6 77C6 78.6569 4.65686 80 3 80C1.34315 80 3.78789e-06 78.6569 3.71547e-06 77L3.62805e-06 75C3.55562e-06 73.3431 1.34315 72 3 72ZM3 86C4.65686 86 6 87.3431 6 89L6 91C6 92.6569 4.65686 94 3 94C1.34315 94 4.39985e-06 92.6569 4.32743e-06 91L4.24e-06 89C4.16758e-06 87.3431 1.34315 86 3 86ZM3 100C4.65686 100 6 101.343 6 103L6 105C6.00001 106.657 4.65686 108 3.00001 108C1.34315 108 5.01181e-06 106.657 4.93939e-06 105L4.85196e-06 103C4.77954e-06 101.343 1.34315 100 3 100ZM3.00001 114C4.65686 114 6.00001 115.343 6.00001 117L6.00001 119C6.00001 120.657 4.65686 122 3.00001 122C1.34315 122 5.62377e-06 120.657 5.55135e-06 119L5.46392e-06 117C5.3915e-06 115.343 1.34315 114 3.00001 114ZM3.00001 128C4.65686 128 6.00001 129.343 6.00001 131L6.00001 133C6.00001 134.657 4.65686 136 3.00001 136C1.34315 136 6.23573e-06 134.657 6.16331e-06 133L6.07588e-06 131C6.00346e-06 129.343 1.34315 128 3.00001 128ZM3.00001 142C4.65686 142 6.00001 143.343 6.00001 145L6.00001 147C6.00001 148.657 4.65686 150 3.00001 150C1.34315 150 6.84769e-06 148.657 6.77527e-06 147L6.68784e-06 145C6.61542e-06 143.343 1.34315 142 3.00001 142ZM3.00001 156C4.65686 156 6.00001 157.343 6.00001 159L6.00001 161C6.00001 162.657 4.65686 164 3.00001 164C1.34315 164 7.45965e-06 162.657 7.38722e-06 161L7.2998e-06 159C7.22738e-06 157.343 1.34315 156 3.00001 156ZM3.00001 170C4.65686 170 6.00001 171.343 6.00001 173L6.00001 175C6.00001 176.657 4.65686 178 3.00001 178C1.34315 178 8.07161e-06 176.657 7.99918e-06 175L7.91176e-06 173C7.83934e-06 171.343 1.34315 170 3.00001 170ZM3.00001 184C4.65686 184 6.00001 185.343 6.00001 187L6.00001 189C6.00001 190.657 4.65686 192 3.00001 192C1.34315 192 8.68357e-06 190.657 8.61114e-06 189L8.52372e-06 187C8.4513e-06 185.343 1.34315 184 3.00001 184ZM3.00001 198C4.65686 198 6.00001 199.343 6.00001 201L6.00001 203C6.00001 204.657 4.65686 206 3.00001 206C1.34316 206 9.29553e-06 204.657 9.2231e-06 203L9.13568e-06 201C9.06326e-06 199.343 1.34315 198 3.00001 198ZM3.00001 212C4.65686 212 6.00001 213.343 6.00001 215L6.00001 217C6.00001 218.657 4.65686 220 3.00001 220C1.34316 220 9.90749e-06 218.657 9.83506e-06 217L9.74764e-06 215C9.67522e-06 213.343 1.34316 212 3.00001 212ZM3.00001 226C4.65686 226 6.00001 227.343 6.00001 229L6.00001 231C6.00001 232.657 4.65686 234 3.00001 234C1.34316 234 1.05194e-05 232.657 1.0447e-05 231L1.03596e-05 229C1.02872e-05 227.343 1.34316 226 3.00001 226ZM3.00001 240C4.65687 240 6.00001 241.343 6.00001 243L6.00001 245C6.00001 246.657 4.65687 248 3.00001 248C1.34316 248 1.11314e-05 246.657 1.1059e-05 245L1.09716e-05 243C1.08991e-05 241.343 1.34316 240 3.00001 240ZM3.00001 254C4.65687 254 6.00001 255.343 6.00001 257L6.00001 258L1.16272e-05 258L1.15835e-05 257C1.15111e-05 255.343 1.34316 254 3.00001 254Z" fill="white"/>
</g>
<defs>
<clipPath id="clip0_832_6209">
<rect width="3" height="250" fill="white"/>
</clipPath>
</defs>
</svg>
