<svg width="133" height="38" viewBox="0 0 133 38" fill="none" xmlns="http://www.w3.org/2000/svg">
<g id="logo">
<g id="Group">
<path id="Vector" d="M55.2032 24.6311H59.1122V4.96217C59.1122 4.56077 58.5401 4.37187 57.4676 4.34826C57.3246 4.34826 57.2769 4.20659 57.2769 4.13575C57.9681 4.13575 58.6832 4.13575 59.3744 4.13575H75.0578H75.0817C75.5345 4.13575 75.9635 3.97046 76.2734 3.66351C76.5594 3.38016 76.7263 3.00236 76.7739 2.62457V0.806434H55.2271V12.4472C55.4416 12.5889 55.6561 12.7542 55.8468 12.9431C56.5857 13.6751 57.0385 14.6904 57.0385 15.8002C57.0385 16.9099 56.5857 17.9252 55.8468 18.6808C55.6561 18.8697 55.4654 19.035 55.2271 19.1767V24.6311H55.2032ZM55.2032 15.2335V16.3668C55.2509 16.1779 55.2747 15.9891 55.2747 15.8002C55.2747 15.6113 55.2509 15.4224 55.2032 15.2335ZM31.6066 7.37061H19.3554V24.6311H23.2643V19.1767H31.6066H31.6304C32.0833 19.1767 32.5123 19.0114 32.8222 18.7045C33.0843 18.4447 33.2274 18.1378 33.2989 17.8072V8.74012C33.2512 8.40955 33.0843 8.07898 32.8222 7.84286C32.4885 7.5359 32.0594 7.37061 31.6066 7.37061ZM33.3465 0.570312H3.86261H3.83877C3.38591 0.570312 2.95688 0.735598 2.64702 1.04256C2.33716 1.34951 2.14648 1.77453 2.14648 2.22316V2.24678V3.92324H11.7043V24.7019H15.6371V4.72605C15.6371 4.32465 15.0651 4.13575 13.9925 4.11214C13.8495 4.11214 13.8018 3.97046 13.8018 3.89963C14.493 3.89963 15.2081 3.89963 15.8993 3.89963H31.6304H31.6542C32.1071 3.89963 32.5361 3.73434 32.846 3.42738C33.1558 3.12043 33.3465 2.69541 33.3465 2.24678V0.570312ZM29.1277 15.8238H23.2405V10.7235H29.3661V15.021H29.3899C29.3899 15.4224 29.962 15.6113 31.0345 15.6349C31.1775 15.6349 31.2252 15.7765 31.2252 15.8474C30.534 15.8238 29.8428 15.8238 29.1277 15.8238ZM46.6465 22.1991V22.9546V22.9783C46.6465 23.4269 46.8372 23.8519 47.147 24.1589C47.4569 24.4658 47.8859 24.6311 48.3388 24.6311H48.3626H50.5554V19.1059C50.3647 18.9642 50.1979 18.8225 50.031 18.6572C49.2922 17.9252 48.8393 16.9099 48.8393 15.8002C48.8393 14.6904 49.2922 13.6751 50.031 12.9431C50.1979 12.7778 50.3647 12.6361 50.5554 12.4945V7.37061H46.6465V18.5156L38.6141 20.9476V7.37061H34.7051V22.9546V22.9783C34.7051 23.4269 34.8958 23.8519 35.2057 24.1589C35.5155 24.4658 35.9445 24.6311 36.3974 24.6311H36.4212H38.6141L46.6465 22.1991ZM75.0817 7.37061H62.8543V24.6311H66.7394V19.1767H75.0578H75.0817C75.5345 19.1767 75.9635 19.0114 76.2734 18.7045C76.5833 18.3975 76.7739 17.9725 76.7739 17.5238V17.5002V9.04708V9.02347C76.7739 8.57483 76.5833 8.14982 76.2734 7.84286C75.9635 7.5359 75.5345 7.37061 75.0817 7.37061ZM72.6028 15.8238H66.7394V10.7235H72.865V15.021C72.865 15.4224 73.437 15.6113 74.5096 15.6349C74.6526 15.6349 74.7003 15.7765 74.7003 15.8474C74.0091 15.8238 73.3179 15.8238 72.6028 15.8238ZM88.2148 7.39423V14.9501C88.2148 15.3515 88.7868 15.5404 89.8594 15.564C90.0024 15.564 90.05 15.7057 90.05 15.7765C89.3588 15.7765 88.6438 15.7765 87.9526 15.7765H82.113V7.39423H78.1802V17.4766H78.204C78.204 17.9252 78.3709 18.3503 78.7046 18.6808C79.0144 18.9878 79.4435 19.1531 79.8963 19.1531H79.9202H88.2148V21.3254H78.2279V23.0019C78.2279 23.4505 78.4186 23.8755 78.7284 24.1825C79.0383 24.4894 79.4673 24.6547 79.9202 24.6547H79.944H90.4314H90.4552C90.9081 24.6547 91.3371 24.4894 91.647 24.1825C91.9568 23.8755 92.1475 23.4505 92.1475 23.0019V22.9783V7.39423H88.2148ZM94.1973 9.04708V24.6547H98.1063V10.7235H103.922C104.613 10.7235 105.328 10.7235 106.02 10.7235C106.02 10.7944 105.948 10.9124 105.829 10.9361C104.756 10.9833 104.184 11.1486 104.184 11.55V24.6547H108.069V9.07069V9.04708C108.069 8.59845 107.879 8.17343 107.569 7.86647C107.259 7.55951 106.83 7.39423 106.377 7.39423H106.353H95.8896H95.8658C95.4129 7.39423 94.9839 7.55951 94.674 7.86647C94.3642 8.17343 94.1973 8.59845 94.1973 9.04708ZM110.167 9.04708V24.6547H114.076V10.7235H119.891C120.583 10.7235 121.298 10.7235 121.989 10.7235C121.989 10.7944 121.917 10.9124 121.798 10.9361C120.726 10.9833 120.154 11.1486 120.154 11.55V24.6547H124.039V9.07069C124.039 8.62206 123.872 8.19704 123.538 7.86647C123.228 7.55951 122.799 7.39423 122.347 7.39423H122.323H111.859H111.835C111.382 7.39423 110.953 7.55951 110.644 7.86647C110.334 8.17343 110.167 8.59845 110.167 9.04708Z" fill="#0D0D0D"/>
<path id="Vector_2" fill-rule="evenodd" clip-rule="evenodd" d="M3.21773 12.6123C5.00536 12.6123 6.45929 14.029 6.45929 15.7999C6.45929 17.5709 5.00536 18.9876 3.21773 18.9876C1.45394 18.9876 0 17.5709 0 15.7999C0 14.029 1.45394 12.6123 3.21773 12.6123Z" fill="#0D0D0D"/>
<path id="Vector_3" fill-rule="evenodd" clip-rule="evenodd" d="M129.782 12.6123C131.57 12.6123 133 14.0526 133 15.7999C133 17.5709 131.546 18.9876 129.782 18.9876C127.995 18.9876 126.564 17.5472 126.564 15.7999C126.541 14.029 127.995 12.6123 129.782 12.6123Z" fill="#0D0D0D"/>
<path id="Vector_4" fill-rule="evenodd" clip-rule="evenodd" d="M52.913 12.6123C54.7007 12.6123 56.1308 14.0526 56.1308 15.7999C56.1308 17.5709 54.6768 18.9876 52.913 18.9876C51.1254 18.9876 49.6953 17.5472 49.6953 15.7999C49.6953 14.029 51.1254 12.6123 52.913 12.6123Z" fill="#0D0D0D"/>
<path id="Vector_5" d="M7.86523 29.7782H8.89014V32.1394C9.00932 32.1394 9.10466 32.1158 9.17616 32.0686C9.24767 32.0214 9.34301 31.9505 9.43835 31.8325L11.3451 29.7782H12.5846L10.0819 32.3519C10.1772 32.3756 10.3202 32.47 10.5109 32.6589C10.7016 32.8478 10.9638 33.1311 11.3451 33.5326L12.8706 35.2326H11.6073L10.1057 33.5326C9.89121 33.2964 9.70053 33.1075 9.50985 32.9895C9.36684 32.895 9.24767 32.8242 9.2 32.8242C9.12849 32.8006 9.08082 32.8006 9.00932 32.8006C8.93781 32.8006 8.91398 32.8006 8.89014 32.8006V35.2562H7.86523V29.7782ZM15.9215 35.3507C15.4448 35.3507 15.0634 35.3271 14.8251 35.3035C14.5867 35.2799 14.3484 35.1854 14.0862 35.091C13.8478 34.9729 13.6571 34.8076 13.538 34.5479C13.4188 34.2881 13.3711 33.9576 13.3711 33.5326V31.6436C13.3711 31.313 13.4188 31.0061 13.4903 30.7463C13.5618 30.4866 13.681 30.2977 13.824 30.156C13.9432 30.038 14.11 29.9199 14.3484 29.8491C14.5867 29.7782 14.8251 29.731 15.0634 29.7074C15.3256 29.6838 15.6116 29.6838 15.9215 29.6838C16.3267 29.6838 16.6127 29.6838 16.8034 29.7074C16.994 29.731 17.2086 29.7546 17.4469 29.8254C17.6853 29.8963 17.8521 29.9907 17.9951 30.1324C18.1143 30.2741 18.2335 30.463 18.3288 30.7227C18.4003 30.9824 18.448 31.2894 18.448 31.6436V33.5326C18.448 34.1701 18.305 34.6423 17.9951 34.9257C17.8759 35.0437 17.7091 35.1382 17.4707 35.209C17.2324 35.2799 17.0179 35.3271 16.7557 35.3507C16.4935 35.3271 16.2075 35.3507 15.9215 35.3507ZM15.9215 34.6659C16.2313 34.6659 16.4697 34.6659 16.6127 34.6423C16.7557 34.6187 16.8987 34.5951 17.0417 34.5243C17.1847 34.4534 17.2801 34.359 17.3277 34.2173C17.3754 34.0756 17.4231 33.8867 17.4231 33.627V31.4075C17.4231 31.0769 17.3754 30.8172 17.3039 30.6755C17.2324 30.5102 17.0894 30.4157 16.8749 30.3685C16.6842 30.3213 16.3505 30.2977 15.9453 30.2977C15.5163 30.2977 15.2064 30.3213 15.0157 30.3685C14.8251 30.4157 14.6821 30.5102 14.5867 30.6755C14.4914 30.8408 14.4675 31.0769 14.4675 31.4075V33.627C14.4675 33.8631 14.4914 34.0756 14.5629 34.2173C14.6105 34.359 14.7059 34.4534 14.8489 34.5243C14.9919 34.5951 15.1349 34.6423 15.2779 34.6423C15.3733 34.6659 15.6116 34.6659 15.9215 34.6659ZM20.0449 29.7782H21.0698V32.045H23.787V29.7782H24.8119V35.2326H23.787V32.777H21.0698V35.2326H20.0449V29.7782ZM31.2951 35.2326H26.6234V29.7782H27.6483V34.477H30.3655V29.7782H31.3904V34.477H32.1531V36.6257H31.2712V35.2326H31.2951ZM35.7284 35.3507C34.0361 35.3507 33.2019 34.784 33.2019 33.6742V31.5255C33.2019 30.8644 33.3925 30.3921 33.7739 30.1088C34.1553 29.8254 34.775 29.6838 35.633 29.6838C36.4434 29.6838 37.0393 29.8254 37.3968 30.1088C37.7543 30.3921 37.945 30.8644 37.945 31.5491V32.7534H34.2506V33.5798C34.2506 33.9576 34.3936 34.2173 34.6558 34.3826C34.918 34.5479 35.3232 34.6187 35.8952 34.6187C36.4196 34.6187 37.0393 34.5243 37.7543 34.359V35.1382C37.0155 35.2562 36.3481 35.3507 35.7284 35.3507ZM36.9201 32.0686V31.2186C36.9201 30.888 36.8248 30.6519 36.6103 30.5338C36.4196 30.4157 36.0621 30.3449 35.5854 30.3449C35.1087 30.3449 34.775 30.4157 34.5605 30.5338C34.3459 30.6519 34.2506 30.888 34.2506 31.2186V32.0686H36.9201ZM39.4943 29.7782H40.5192V30.3685C40.6146 29.8963 41.2343 29.6602 42.4022 29.6602C43.0934 29.6602 43.6178 29.8018 43.9753 30.0852C44.3328 30.3685 44.4997 30.7463 44.4997 31.1949V33.4381C44.4997 33.7687 44.452 34.052 44.3567 34.2881C44.2613 34.5243 44.1421 34.7132 43.9753 34.8548C43.8323 34.9729 43.6416 35.091 43.4033 35.1618C43.1649 35.2326 42.9266 35.2799 42.6882 35.3035C42.4737 35.3271 42.2115 35.3271 41.9255 35.3271C41.5918 35.3271 41.2819 35.2799 41.0197 35.209C40.7337 35.1382 40.5669 35.0201 40.4954 34.8548V37.4286H39.4705V29.7782H39.4943ZM41.9732 34.6423C42.3783 34.6423 42.6644 34.6187 42.8789 34.5479C43.0934 34.5006 43.2364 34.3826 43.3317 34.2409C43.4271 34.0992 43.4748 33.8631 43.4748 33.5562V31.5491C43.4748 31.2186 43.4271 30.9588 43.3317 30.7935C43.2364 30.6283 43.0934 30.5102 42.8789 30.463C42.6644 30.4157 42.3545 30.3685 41.9732 30.3685C41.568 30.3685 41.2581 30.3921 41.0674 30.463C40.8529 30.5102 40.7099 30.6283 40.6146 30.7935C40.5192 30.9588 40.4715 31.2186 40.4715 31.5491V33.5562C40.4715 33.8631 40.5192 34.0756 40.6146 34.2409C40.7099 34.4062 40.8529 34.5006 41.0674 34.5479C41.2819 34.6187 41.568 34.6423 41.9732 34.6423ZM47.4552 30.5102H45.5246V29.7782H50.4107V30.5102H48.4801V35.209H47.4552V30.5102ZM51.6502 29.7782H52.6751V32.045H55.3923V29.7782H56.4172V35.2326H55.3923V32.777H52.6751V35.2326H51.6502V29.7782ZM60.493 35.3507C60.0163 35.3507 59.6349 35.3271 59.3965 35.3035C59.1582 35.2799 58.9199 35.1854 58.6577 35.091C58.4193 34.9729 58.2286 34.8076 58.1095 34.5479C57.9903 34.2881 57.9426 33.9576 57.9426 33.5326V31.6436C57.9426 31.313 57.9903 31.0061 58.0618 30.7463C58.1333 30.4866 58.2525 30.2977 58.3955 30.156C58.5147 30.038 58.6815 29.9199 58.9198 29.8491C59.1582 29.7782 59.3965 29.731 59.6349 29.7074C59.8971 29.6838 60.1831 29.6838 60.493 29.6838C60.8982 29.6838 61.1842 29.6838 61.3749 29.7074C61.5655 29.731 61.7801 29.7546 62.0184 29.8254C62.2568 29.8963 62.4236 29.9907 62.5666 30.1324C62.6858 30.2741 62.805 30.463 62.9003 30.7227C62.9718 30.9824 63.0195 31.2894 63.0195 31.6436V33.5326C63.0195 34.1701 62.8765 34.6423 62.5666 34.9257C62.4474 35.0437 62.2806 35.1382 62.0422 35.209C61.8039 35.2799 61.5894 35.3271 61.3272 35.3507C61.065 35.3271 60.779 35.3507 60.493 35.3507ZM60.493 34.6659C60.8028 34.6659 61.0412 34.6659 61.1842 34.6423C61.3272 34.6187 61.4702 34.5951 61.6132 34.5243C61.7562 34.4534 61.8516 34.359 61.8992 34.2173C61.9469 34.0756 61.9946 33.8867 61.9946 33.627V31.4075C61.9946 31.0769 61.9469 30.8172 61.8754 30.6755C61.8039 30.5102 61.6609 30.4157 61.4464 30.3685C61.2557 30.3213 60.922 30.2977 60.5168 30.2977C60.0878 30.2977 59.7779 30.3213 59.5872 30.3685C59.3965 30.4157 59.2535 30.5102 59.1582 30.6755C59.0629 30.8408 59.039 31.0769 59.039 31.4075V33.627C59.039 33.8631 59.0629 34.0756 59.1344 34.2173C59.182 34.359 59.2774 34.4534 59.4204 34.5243C59.5634 34.5951 59.7064 34.6423 59.8494 34.6423C59.9448 34.6659 60.1831 34.6659 60.493 34.6659ZM66.9523 35.3507C65.26 35.3507 64.4257 34.784 64.4257 33.6742V31.5255C64.4257 30.8644 64.6164 30.3921 64.9978 30.1088C65.3791 29.8254 65.9989 29.6838 66.8569 29.6838C67.6673 29.6838 68.2632 29.8254 68.6207 30.1088C68.9782 30.3921 69.1689 30.8644 69.1689 31.5491V32.7534H65.4745V33.5798C65.4745 33.9576 65.6175 34.2173 65.8797 34.3826C66.1419 34.5479 66.5471 34.6187 67.1191 34.6187C67.6435 34.6187 68.2632 34.5243 68.9782 34.359V35.1382C68.2393 35.2562 67.572 35.3507 66.9523 35.3507ZM68.1202 32.0686V31.2186C68.1202 30.888 68.0248 30.6519 67.8103 30.5338C67.6196 30.4157 67.2621 30.3449 66.7854 30.3449C66.3087 30.3449 65.975 30.4157 65.7605 30.5338C65.546 30.6519 65.4506 30.888 65.4506 31.2186V32.0686H68.1202ZM75.0323 35.3507C74.5079 35.3507 74.1028 35.3035 73.8167 35.209C73.5307 35.1146 73.3162 34.9493 73.197 34.6895C73.0779 34.4534 73.0063 34.0756 73.0063 33.627C73.0063 33.2256 73.054 32.895 73.1732 32.6589C73.2924 32.4228 73.483 32.2575 73.7691 32.163C74.0551 32.0686 74.4603 32.0214 74.9847 32.0214H76.6293V31.1477C76.6293 30.9352 76.5816 30.7935 76.5101 30.6755C76.4386 30.5574 76.2956 30.4866 76.1049 30.4394C75.9142 30.3921 75.652 30.3685 75.2945 30.3685C74.7225 30.3685 74.1028 30.4157 73.4115 30.5102V29.7782C74.1504 29.7074 74.8416 29.6838 75.4375 29.6838C76.0811 29.6838 76.5339 29.731 76.8438 29.8254C77.1536 29.9199 77.3443 30.0852 77.4635 30.3213C77.5827 30.5574 77.6303 30.9116 77.6303 31.4075V35.2562H76.6293V34.7368C76.6054 35.1382 76.0334 35.3507 75.0323 35.3507ZM75.1992 34.6659C75.5805 34.6659 75.8904 34.6423 76.1526 34.5951C76.4863 34.5243 76.6531 34.359 76.6531 34.1229V32.6353H75.08C74.7463 32.6353 74.508 32.6589 74.3649 32.7061C74.2219 32.7534 74.1266 32.8478 74.0789 32.9895C74.0312 33.1311 74.0074 33.3437 74.0074 33.6506C74.0074 33.9103 74.0312 34.1229 74.0789 34.2645C74.1266 34.4062 74.2219 34.5243 74.3649 34.5715C74.508 34.6423 74.6986 34.6659 74.9847 34.6659H75.1992ZM79.5133 29.7782H83.1124V30.5102H80.5382V35.209H79.5133V29.7782ZM86.5446 35.3507C84.8524 35.3507 84.0181 34.784 84.0181 33.6742V31.5255C84.0181 30.8644 84.2088 30.3921 84.5902 30.1088C84.9715 29.8254 85.5912 29.6838 86.4493 29.6838C87.2597 29.6838 87.8556 29.8254 88.2131 30.1088C88.5706 30.3921 88.7613 30.8644 88.7613 31.5491V32.7534H85.0669V33.5798C85.0669 33.9576 85.2099 34.2173 85.4721 34.3826C85.7343 34.5479 86.1394 34.6187 86.7115 34.6187C87.2359 34.6187 87.8556 34.5243 88.5706 34.359V35.1382C87.8317 35.2562 87.1644 35.3507 86.5446 35.3507ZM87.7364 32.0686V31.2186C87.7364 30.888 87.641 30.6519 87.4265 30.5338C87.2359 30.4157 86.8783 30.3449 86.4016 30.3449C85.9249 30.3449 85.5912 30.4157 85.3767 30.5338C85.1622 30.6519 85.0669 30.888 85.0669 31.2186V32.0686H87.7364ZM90.3106 29.7782H91.3355V32.045H94.0527V29.7782H95.0776V35.2326H94.0527V32.777H91.3355V35.2326H90.3106V29.7782ZM98.2238 30.5102H96.2932V29.7782H101.179V30.5102H99.2487V35.209H98.2238V30.5102ZM104.612 35.3507C104.23 35.3507 103.968 35.3507 103.777 35.3271C103.611 35.3035 103.42 35.2799 103.181 35.209C102.943 35.1382 102.776 35.0673 102.633 34.9493C102.514 34.8312 102.395 34.6423 102.3 34.4298C102.204 34.1937 102.157 33.934 102.157 33.5798V31.5727C102.157 30.9588 102.276 30.5338 102.514 30.2741C102.633 30.1324 102.776 30.0143 102.895 29.9199C103.038 29.8491 103.205 29.7782 103.42 29.7546C103.634 29.731 103.825 29.7074 103.992 29.6838C104.159 29.6838 104.397 29.6602 104.707 29.6602C105.231 29.6602 105.756 29.7074 106.28 29.8254V30.5574C105.684 30.4157 105.112 30.3213 104.588 30.3213C104.183 30.3213 103.897 30.3449 103.706 30.4157C103.515 30.463 103.396 30.581 103.324 30.7227C103.253 30.8644 103.205 31.1005 103.205 31.3838V33.6034C103.205 33.8867 103.253 34.0992 103.324 34.2173C103.396 34.359 103.539 34.4534 103.754 34.5006C103.968 34.5479 104.278 34.5951 104.683 34.5951C105.231 34.5951 105.78 34.5243 106.352 34.3826V35.1382C105.851 35.2798 105.279 35.3507 104.612 35.3507ZM109.069 30.5102H107.138V29.7782H112.024V30.5102H110.094V35.209H109.069V30.5102ZM113.311 29.7782H115.719C116.219 29.7782 116.601 29.8018 116.91 29.8727C117.196 29.9199 117.411 30.0143 117.554 30.156C117.673 30.2741 117.769 30.4157 117.792 30.5574C117.84 30.6991 117.84 30.888 117.84 31.1241V31.313C117.84 31.5964 117.769 31.8325 117.602 31.9741C117.459 32.1158 117.196 32.2339 116.839 32.3047V32.3519C117.721 32.4936 118.15 32.8714 118.15 33.4853V33.8159C118.15 34.1937 118.078 34.477 117.935 34.6659C117.792 34.8784 117.554 35.0201 117.196 35.1146C116.863 35.209 116.386 35.2562 115.766 35.2562H113.288V29.7782H113.311ZM115.814 32.0686C116.124 32.0686 116.338 32.045 116.505 31.9978C116.648 31.9505 116.767 31.8797 116.815 31.7616C116.863 31.6436 116.887 31.4783 116.887 31.2658V31.1949C116.887 30.9824 116.863 30.8408 116.791 30.7463C116.744 30.6519 116.624 30.581 116.481 30.5338C116.315 30.4866 116.1 30.463 115.79 30.463H114.336V32.0686H115.814ZM115.838 34.5006C116.195 34.5006 116.458 34.477 116.648 34.4298C116.839 34.3826 116.958 34.3118 117.03 34.2173C117.101 34.1229 117.125 33.9576 117.125 33.7687V33.3909C117.125 33.202 117.053 33.0367 116.887 32.9186C116.72 32.8006 116.386 32.7297 115.886 32.7297H114.312V34.477H115.838V34.5006ZM122.083 35.3507C121.606 35.3507 121.225 35.3271 120.986 35.3035C120.748 35.2799 120.51 35.1854 120.247 35.091C120.009 34.9729 119.818 34.8076 119.699 34.5479C119.58 34.2881 119.532 33.9576 119.532 33.5326V31.6436C119.532 31.313 119.58 31.0061 119.651 30.7463C119.723 30.4866 119.842 30.2977 119.985 30.156C120.104 30.038 120.271 29.9199 120.51 29.8491C120.748 29.7782 120.986 29.731 121.225 29.7074C121.487 29.6838 121.773 29.6838 122.083 29.6838C122.488 29.6838 122.774 29.6838 122.965 29.7074C123.155 29.731 123.37 29.7546 123.608 29.8254C123.846 29.8963 124.013 29.9907 124.156 30.1324C124.275 30.2741 124.395 30.463 124.49 30.7227C124.561 30.9824 124.609 31.2894 124.609 31.6436V33.5326C124.609 34.1701 124.466 34.6423 124.156 34.9257C124.037 35.0437 123.87 35.1382 123.632 35.209C123.394 35.2799 123.179 35.3271 122.917 35.3507C122.655 35.3271 122.369 35.3507 122.083 35.3507ZM122.083 34.6659C122.393 34.6659 122.631 34.6659 122.774 34.6423C122.917 34.6187 123.06 34.5951 123.203 34.5243C123.346 34.4534 123.441 34.359 123.489 34.2173C123.537 34.0756 123.584 33.8867 123.584 33.627V31.4075C123.584 31.0769 123.537 30.8172 123.465 30.6755C123.394 30.5102 123.251 30.4157 123.036 30.3685C122.845 30.3213 122.512 30.2977 122.106 30.2977C121.677 30.2977 121.368 30.3213 121.177 30.3685C120.986 30.4157 120.843 30.5102 120.748 30.6755C120.653 30.8408 120.629 31.0769 120.629 31.4075V33.627C120.629 33.8631 120.653 34.0756 120.724 34.2173C120.772 34.359 120.867 34.4534 121.01 34.5243C121.153 34.5951 121.296 34.6423 121.439 34.6423C121.534 34.6659 121.773 34.6659 122.083 34.6659Z" fill="#0D0D0D"/>
</g>
</g>
</svg>
