<svg width="123" height="495" viewBox="0 0 123 495" fill="none" xmlns="http://www.w3.org/2000/svg">
<path d="M60.5934 391.342L93.8549 388.299C93.8549 388.299 86.0161 250.602 80.2059 199.071C79.7941 195.403 79.3917 192.181 78.9985 189.469C78.5139 186.092 75.9227 183.427 72.557 182.8C69.1001 182.155 65.2146 181.792 61.1195 181.794C56.4133 181.795 52.0083 182.279 48.178 183.109C44.9404 183.82 42.4697 186.433 42.0058 189.71C41.6419 192.249 41.2781 195.226 40.8963 198.594C35.1142 249.756 27.3298 388.323 27.3298 388.323L60.5934 391.342Z" fill="#2C2F31"/>
<path d="M27.1201 387.905C14.2925 401.58 6.03656 421.579 6.04289 439.045C6.05375 469.063 30.4508 493.392 60.5303 493.381C90.6098 493.37 114.989 469.023 114.978 439.006C114.972 421.54 106.702 401.546 93.8641 387.88L27.1293 387.905L27.1201 387.905Z" fill="#2C2F31"/>
<path d="M92.4967 390.958C104.294 404.042 111.871 422.752 111.877 439.008C111.887 467.277 88.848 490.286 60.5196 490.296C32.1913 490.306 9.1354 467.315 9.12517 439.045C9.11928 422.789 16.6825 404.073 28.4706 390.981L92.4967 390.958Z" fill="white"/>
<mask id="mask0_865_6192" style="mask-type:luminance" maskUnits="userSpaceOnUse" x="9" y="390" width="103" height="101">
<path d="M92.4967 390.958C104.294 404.042 111.871 422.752 111.877 439.008C111.887 467.277 88.848 490.286 60.5196 490.296C32.1913 490.306 9.1354 467.315 9.12517 439.045C9.11928 422.789 16.6825 404.073 28.4706 390.981L92.4967 390.958Z" fill="white"/>
</mask>
<g mask="url(#mask0_865_6192)">
<path d="M111.715 370.316C154.463 370.3 184.333 396.275 184.346 433.483C184.36 470.69 154.509 496.687 111.761 496.702C69.0128 496.718 39.1428 470.743 39.1293 433.535C39.1159 396.328 68.967 370.331 111.715 370.316ZM111.76 495.164C153.605 495.149 182.818 469.79 182.805 433.483C182.792 397.177 153.56 371.839 111.715 371.854C69.8705 371.869 40.6667 397.237 40.6798 433.535C40.693 469.832 69.9243 495.179 111.76 495.164Z" fill="#2C2F31"/>
<path d="M111.717 376.405C150.872 376.391 178.224 399.864 178.236 433.485C178.248 467.107 150.913 490.59 111.759 490.604C72.6042 490.618 45.2524 467.146 45.2403 433.533C45.2281 399.921 72.5629 376.419 111.717 376.405ZM111.758 489.066C150 489.052 176.706 466.197 176.694 433.486C176.682 400.774 149.96 377.93 111.718 377.943C73.4755 377.957 46.7698 400.812 46.7816 433.533C46.7935 466.253 73.5157 489.08 111.758 489.066Z" fill="#2C2F31"/>
<path d="M111.72 382.504C147.281 382.491 172.123 403.462 172.134 433.488C172.145 463.515 147.318 484.503 111.757 484.516C76.1958 484.529 51.3531 463.558 51.3422 433.532C51.3313 403.505 76.1589 382.517 111.72 382.504ZM111.756 482.978C146.405 482.965 170.604 462.614 170.593 433.489C170.582 404.363 146.378 384.03 111.72 384.042C77.0624 384.055 52.8821 404.406 52.8927 433.531C52.9032 462.657 77.1073 482.99 111.756 482.978Z" fill="#2C2F31"/>
<path d="M111.722 388.592C143.689 388.58 166.014 407.039 166.023 433.489C166.033 459.938 143.713 478.405 111.754 478.416C79.7959 478.428 57.4622 459.968 57.4526 433.528C57.443 407.088 79.7634 388.603 111.722 388.592ZM111.754 476.878C142.809 476.867 164.491 459.029 164.482 433.489C164.473 407.95 142.778 390.128 111.722 390.139C80.6669 390.15 58.9847 407.997 58.994 433.527C59.0032 459.058 80.6983 476.889 111.754 476.878Z" fill="#2C2F31"/>
<path d="M111.724 394.691C140.089 394.68 159.914 410.637 159.922 433.492C159.93 456.346 140.126 472.318 111.752 472.328C83.3784 472.338 63.5628 456.381 63.5546 433.527C63.5463 410.672 83.3503 394.701 111.724 394.691ZM111.752 470.79C139.214 470.78 158.379 455.446 158.371 433.492C158.364 411.539 139.178 396.219 111.725 396.229C84.272 396.239 65.0971 411.573 65.1051 433.526C65.113 455.479 84.299 470.8 111.752 470.79Z" fill="#2C2F31"/>
<path d="M111.727 400.78C136.498 400.771 153.804 414.226 153.811 433.494C153.818 452.763 136.522 466.221 111.75 466.23C86.9789 466.239 69.6724 452.793 69.6655 433.525C69.6585 414.256 86.9552 400.789 111.727 400.78ZM111.75 464.692C135.609 464.683 152.277 451.853 152.27 433.495C152.263 415.137 135.596 402.318 111.727 402.327C87.8587 402.336 71.2002 415.166 71.2068 433.524C71.2135 451.882 87.8813 464.701 111.75 464.692Z" fill="#2C2F31"/>
<path d="M111.729 406.879C132.906 406.871 147.704 417.815 147.71 433.497C147.715 449.18 132.926 460.134 111.748 460.142C90.5701 460.15 75.7817 449.206 75.7761 433.523C75.7704 417.841 90.5599 406.886 111.729 406.879ZM111.747 458.595C132.013 458.587 146.164 448.261 146.159 433.498C146.154 418.735 131.995 408.41 111.729 408.417C91.4634 408.424 77.3121 418.751 77.3174 433.523C77.3228 448.295 91.4816 458.602 111.747 458.595Z" fill="#2C2F31"/>
<path d="M111.731 412.975C129.315 412.969 141.594 421.411 141.599 433.498C141.603 445.585 129.33 454.036 111.745 454.042C94.161 454.048 81.8817 445.606 81.8774 433.519C81.873 421.432 94.1461 412.982 111.731 412.975ZM111.745 452.504C128.417 452.498 140.061 444.684 140.057 433.498C140.053 422.312 128.403 414.507 111.731 414.513C95.0587 414.519 83.4147 422.333 83.4187 433.519C83.4228 444.705 95.0725 452.51 111.745 452.504Z" fill="#2C2F31"/>
<path d="M111.733 419.065C125.715 419.06 135.485 425 135.488 433.501C135.491 442.002 125.725 447.949 111.743 447.954C97.7616 447.959 87.9913 442.028 87.9883 433.518C87.9852 425.008 97.7511 419.07 111.733 419.065ZM111.743 446.407C124.822 446.402 133.949 441.092 133.947 433.501C133.944 425.911 124.812 420.599 111.733 420.603C98.6546 420.608 89.5269 425.918 89.5296 433.518C89.5324 441.117 98.6639 446.411 111.743 446.407Z" fill="#2C2F31"/>
<path d="M111.735 425.163C121.631 425.16 129.385 428.825 129.387 433.503C129.388 438.182 121.637 441.852 111.741 441.856C101.846 441.86 94.0919 438.194 94.0902 433.516C94.0885 428.838 101.84 425.167 111.735 425.163ZM111.741 440.318C120.469 440.315 127.837 437.19 127.836 433.504C127.835 429.818 120.464 426.699 111.736 426.702C103.008 426.705 95.6302 429.829 95.6316 433.516C95.6329 437.202 103.013 440.321 111.741 440.318Z" fill="#2C2F31"/>
<path d="M111.7 327.657C179.62 327.632 227.072 371.139 227.094 433.468C227.117 495.796 179.697 539.337 111.776 539.362C43.856 539.387 -3.59562 495.87 -3.61818 433.551C-3.64075 371.232 43.7793 327.681 111.7 327.657ZM111.776 537.824C178.784 537.8 225.575 494.886 225.553 433.468C225.531 372.05 178.718 329.171 111.7 329.195C44.6828 329.219 -2.08992 372.132 -2.06768 433.551C-2.04545 494.969 44.7675 537.848 111.776 537.824Z" fill="#2C2F31"/>
<path d="M111.702 333.746C176.029 333.723 220.963 374.728 220.984 433.47C221.005 492.212 176.101 533.241 111.774 533.264C47.4474 533.287 2.514 492.282 2.49273 433.54C2.47147 374.798 47.3843 333.76 111.702 333.737L111.702 333.746ZM111.774 531.726C175.189 531.703 219.463 491.303 219.443 433.471C219.422 375.638 175.118 335.27 111.703 335.293C48.2878 335.316 4.01316 375.716 4.03409 433.549C4.05503 491.381 48.3589 531.749 111.774 531.726Z" fill="#2C2F31"/>
<path d="M111.705 339.843C172.429 339.821 214.863 378.324 214.883 433.471C214.903 488.618 172.506 527.152 111.773 527.174C51.039 527.196 8.61464 488.693 8.59467 433.546C8.57471 378.399 50.9712 339.865 111.705 339.843ZM111.772 525.636C171.593 525.614 213.361 487.709 213.341 433.472C213.322 379.235 171.527 341.36 111.714 341.381C51.902 341.403 10.1346 379.299 10.1543 433.545C10.1739 487.791 51.9596 525.658 111.772 525.636Z" fill="#2C2F31"/>
<path d="M111.707 345.932C168.838 345.912 208.753 381.913 208.772 433.465C208.79 485.017 168.901 521.055 111.77 521.076C54.6391 521.097 14.7238 485.096 14.7051 433.544C14.6864 381.992 54.5757 345.962 111.707 345.941L111.707 345.932ZM111.769 519.538C167.997 519.518 207.248 484.125 207.23 433.474C207.212 382.823 167.935 347.459 111.707 347.48C55.4792 347.5 16.2281 382.892 16.2465 433.543C16.2648 484.194 55.5506 519.558 111.769 519.538Z" fill="#2C2F31"/>
<path d="M111.709 352.031C165.246 352.012 202.652 385.502 202.67 433.477C202.687 481.452 165.305 514.969 111.768 514.988C58.2302 515.007 20.833 481.518 20.8157 433.543C20.7983 385.568 58.1803 352.051 111.709 352.031ZM111.767 513.441C164.392 513.422 201.136 480.542 201.119 433.468C201.102 386.394 164.335 353.541 111.709 353.56C59.0838 353.579 22.34 386.459 22.357 433.533C22.3741 480.607 59.1417 513.46 111.767 513.441Z" fill="#2C2F31"/>
<path d="M111.711 358.121C161.655 358.102 196.543 389.09 196.559 433.47C196.575 477.85 161.71 508.872 111.766 508.89C61.8216 508.908 26.9335 477.92 26.9175 433.541C26.9014 389.161 61.767 358.148 111.711 358.13L111.711 358.121ZM111.765 507.352C160.797 507.334 195.034 476.958 195.018 433.48C195.002 390.001 160.743 359.65 111.712 359.668C62.6797 359.686 28.4431 390.061 28.4588 433.54C28.4746 477.019 62.7331 507.37 111.765 507.352Z" fill="#2C2F31"/>
<path d="M111.714 364.218C158.064 364.201 190.443 392.687 190.458 433.48C190.473 474.274 158.114 502.783 111.764 502.8C65.4132 502.817 33.0433 474.34 33.0285 433.537C33.0138 392.734 65.3722 364.234 111.714 364.218ZM111.763 501.253C157.202 501.236 188.922 473.364 188.907 433.481C188.893 393.597 157.153 365.739 111.714 365.756C66.2757 365.772 34.5555 393.644 34.5699 433.537C34.5843 473.429 66.3247 501.269 111.763 501.253Z" fill="#2C2F31"/>
<path d="M111.715 370.316C154.463 370.3 184.333 396.275 184.346 433.483C184.36 470.69 154.509 496.687 111.761 496.702C69.0128 496.718 39.1428 470.743 39.1293 433.535C39.1159 396.328 68.967 370.331 111.715 370.316ZM111.76 495.164C153.605 495.149 182.818 469.79 182.805 433.483C182.792 397.177 153.56 371.839 111.715 371.854C69.8705 371.869 40.6667 397.237 40.6798 433.535C40.693 469.832 69.9243 495.179 111.76 495.164Z" fill="#2C2F31"/>
<path d="M9.45613 370.353C52.204 370.338 82.074 396.312 82.0875 433.52C82.1009 470.728 52.2498 496.724 9.50189 496.739C-33.246 496.755 -63.116 470.78 -63.1294 433.572C-63.1429 396.365 -33.2917 370.369 9.45613 370.353ZM9.50133 495.201C51.3463 495.186 80.5593 469.827 80.5461 433.52C80.533 397.214 51.3016 371.876 9.45669 371.891C-32.3883 371.906 -61.6012 397.274 -61.5881 433.572C-61.5749 469.869 -32.3436 495.216 9.50133 495.201Z" fill="#2C2F31"/>
<path d="M9.45801 376.442C48.6124 376.428 75.9642 399.901 75.9764 433.522C75.9886 467.144 48.6537 490.627 9.49936 490.641C-29.655 490.655 -57.0069 467.183 -57.019 433.57C-57.0312 399.958 -29.6964 376.456 9.45801 376.442ZM9.4988 489.103C47.7411 489.089 74.4469 466.234 74.435 433.523C74.4232 400.811 47.7009 377.967 9.45857 377.98C-28.7838 377.994 -55.4895 400.849 -55.4777 433.57C-55.4658 466.29 -28.7435 489.117 9.4988 489.103Z" fill="#2C2F31"/>
<path d="M9.46054 382.541C45.0214 382.528 69.8642 403.499 69.8751 433.525C69.886 463.552 45.0584 484.54 9.49747 484.553C-26.0634 484.566 -50.9062 463.596 -50.9171 433.569C-50.9279 403.543 -26.1004 382.554 9.46054 382.541ZM9.49691 483.015C44.1458 483.002 68.3443 462.651 68.3337 433.526C68.3232 404.4 44.1191 384.067 9.4611 384.08C-25.1969 384.092 -49.3771 404.443 -49.3666 433.569C-49.356 462.694 -25.1519 483.027 9.49691 483.015Z" fill="#2C2F31"/>
<path d="M9.46291 388.629C41.4303 388.617 63.7549 407.076 63.7645 433.526C63.7741 459.975 41.4537 478.442 9.49542 478.453C-22.4629 478.465 -44.7966 460.006 -44.8062 433.565C-44.8157 407.125 -22.4954 388.64 9.46291 388.629ZM9.49487 476.915C40.5502 476.904 62.2324 459.066 62.2231 433.526C62.2139 407.987 40.5188 390.165 9.46347 390.176C-21.5919 390.187 -43.274 408.034 -43.2648 433.565C-43.2555 459.095 -21.5605 476.926 9.49487 476.915Z" fill="#2C2F31"/>
<path d="M9.46494 394.728C37.8298 394.717 57.6544 410.675 57.6627 433.529C57.671 456.383 37.867 472.355 9.49305 472.365C-18.8809 472.375 -38.6964 456.418 -38.7047 433.564C-38.713 410.709 -18.909 394.738 9.46494 394.728ZM9.49249 470.827C36.9544 470.817 56.1202 455.483 56.1122 433.529C56.1043 411.576 36.9183 396.256 9.4655 396.266C-17.9873 396.276 -37.1622 411.61 -37.1542 433.563C-37.1463 455.517 -17.9603 470.837 9.49249 470.827Z" fill="#2C2F31"/>
<path d="M9.46682 400.817C34.2382 400.808 51.5447 414.263 51.5516 433.531C51.5586 452.8 34.2618 466.258 9.49051 466.267C-15.2808 466.276 -32.5873 452.83 -32.5943 433.562C-32.6013 414.294 -15.3045 400.826 9.46682 400.817ZM9.48996 464.729C33.3492 464.72 50.0169 451.89 50.0103 433.532C50.0036 415.174 33.3358 402.356 9.46738 402.364C-14.401 402.373 -31.0596 415.203 -31.0529 433.561C-31.0463 451.919 -14.3784 464.738 9.48996 464.729Z" fill="#2C2F31"/>
<path d="M9.46886 406.916C30.6467 406.908 45.4442 417.852 45.4498 433.534C45.4555 449.217 30.666 460.171 9.48814 460.179C-11.6897 460.187 -26.478 449.243 -26.4837 433.56C-26.4894 417.878 -11.6999 406.924 9.46886 406.916ZM9.48758 458.632C29.7534 458.624 43.9047 448.298 43.8993 433.535C43.894 418.772 29.7352 408.447 9.46941 408.454C-10.7964 408.461 -24.9477 418.788 -24.9423 433.56C-24.937 448.332 -10.7782 458.639 9.48758 458.632Z" fill="#2C2F31"/>
<path d="M9.47123 413.012C27.0556 413.006 39.3349 421.448 39.3392 433.535C39.3436 445.622 27.0705 454.073 9.48609 454.079C-8.09827 454.086 -20.3775 445.644 -20.3819 433.557C-20.3863 421.47 -8.11314 413.019 9.47123 413.012ZM9.48554 452.541C26.1578 452.535 37.8019 444.721 37.7979 433.535C37.7938 422.35 26.1441 414.544 9.47178 414.551C-7.20053 414.557 -18.8446 422.37 -18.8405 433.556C-18.8365 444.742 -7.18677 452.547 9.48554 452.541Z" fill="#2C2F31"/>
<path d="M9.4731 419.102C23.4549 419.097 33.2251 425.037 33.2282 433.538C33.2312 442.039 23.4653 447.986 9.48356 447.991C-4.4982 447.996 -14.2684 442.065 -14.2715 433.555C-14.2746 425.045 -4.50866 419.107 9.4731 419.102ZM9.483 446.444C22.5618 446.439 31.6895 441.129 31.6868 433.539C31.6841 425.948 22.5525 420.636 9.47365 420.64C-3.60517 420.645 -12.7329 425.955 -12.7301 433.555C-12.7274 441.155 -3.59583 446.448 9.483 446.444Z" fill="#2C2F31"/>
<path d="M9.47563 425.201C19.3714 425.197 27.1252 428.862 27.1269 433.54C27.1286 438.219 19.3774 441.89 9.48167 441.893C-0.414093 441.897 -8.16787 438.232 -8.16956 433.553C-8.17126 428.875 -0.420136 425.204 9.47563 425.201ZM9.48111 440.355C18.2095 440.352 25.5777 437.227 25.5764 433.541C25.575 429.855 18.2045 426.736 9.47619 426.739C0.747848 426.742 -6.62953 429.866 -6.62819 433.553C-6.62686 437.239 0.752777 440.358 9.48111 440.355Z" fill="#2C2F31"/>
<path d="M9.44007 327.694C77.3606 327.669 124.812 371.185 124.835 433.505C124.857 495.824 77.4372 539.375 9.51671 539.399C-58.4038 539.424 -105.855 495.908 -105.878 433.588C-105.9 371.269 -58.4804 327.718 9.44007 327.694ZM9.51615 537.861C76.5246 537.837 123.316 494.924 123.293 433.505C123.271 372.087 76.4582 329.208 9.44062 329.232C-57.577 329.256 -104.35 372.169 -104.327 433.588C-104.305 495.006 -57.4923 537.885 9.51615 537.861Z" fill="#2C2F31"/>
<path d="M9.44243 333.783C73.7695 333.76 118.703 374.765 118.724 433.507C118.745 492.249 73.8417 533.278 9.51466 533.301C-54.8124 533.325 -99.7458 492.319 -99.767 433.577C-99.7883 374.835 -54.8755 333.797 9.44243 333.774L9.44243 333.783ZM9.5141 531.763C72.9291 531.74 117.204 491.34 117.183 433.508C117.162 375.676 72.858 335.307 9.44299 335.33C-53.972 335.353 -98.2466 375.754 -98.2257 433.586C-98.2047 491.418 -53.9009 531.786 9.5141 531.763Z" fill="#2C2F31"/>
<path d="M9.44495 339.88C70.1694 339.858 112.603 378.361 112.623 433.508C112.643 488.655 70.2463 527.189 9.51277 527.211C-51.2208 527.233 -93.6451 488.73 -93.6651 433.583C-93.6851 378.436 -51.2886 339.902 9.44495 339.88ZM9.51221 525.673C69.3337 525.651 111.092 487.755 111.072 433.509C111.053 379.263 69.2579 341.397 9.44551 341.418C-50.3669 341.44 -92.1342 379.336 -92.1146 433.582C-92.095 487.829 -50.3002 525.695 9.51221 525.673Z" fill="#2C2F31"/>
<path d="M9.44733 345.969C66.5783 345.949 106.494 381.95 106.512 433.502C106.531 485.054 66.6508 521.093 9.51074 521.113C-47.6293 521.134 -87.5355 485.133 -87.5542 433.581C-87.5728 382.029 -47.6836 345.999 9.44733 345.978L9.44733 345.969ZM9.51018 519.575C65.7291 519.555 104.989 484.162 104.971 433.511C104.953 382.86 65.6759 347.496 9.44789 347.517C-46.7801 347.537 -86.0311 382.929 -86.0128 433.58C-85.9945 484.231 -46.7087 519.595 9.51018 519.575Z" fill="#2C2F31"/>
<path d="M9.44984 352.068C62.9873 352.049 100.394 385.539 100.411 433.514C100.428 481.489 63.0463 515.006 9.50884 515.025C-44.0286 515.044 -81.4258 481.555 -81.4431 433.58C-81.4605 385.605 -44.0785 352.088 9.44984 352.068ZM9.50828 513.478C62.1337 513.459 98.8775 480.579 98.8604 433.505C98.8434 386.431 62.0758 353.578 9.4504 353.597C-43.175 353.617 -79.9188 386.496 -79.9018 433.57C-79.8847 480.644 -43.1171 513.497 9.50828 513.478Z" fill="#2C2F31"/>
<path d="M9.45174 358.157C59.3957 358.139 94.2838 389.127 94.2999 433.507C94.3159 477.886 59.4503 508.899 9.50631 508.917C-40.4377 508.936 -75.3257 477.948 -75.3418 433.568C-75.3579 389.188 -40.4922 358.175 9.45174 358.157ZM9.50576 507.388C58.5377 507.371 92.7742 476.995 92.7585 433.516C92.7428 390.037 58.4842 359.687 9.4523 359.704C-39.5796 359.722 -73.8162 390.098 -73.8004 433.576C-73.7847 477.055 -39.5262 507.406 9.50576 507.388Z" fill="#2C2F31"/>
<path d="M9.45376 364.255C55.8042 364.238 88.1833 392.724 88.1981 433.517C88.2128 474.311 55.8544 502.82 9.50393 502.837C-36.8466 502.854 -69.2165 474.377 -69.2312 433.574C-69.246 392.772 -36.8876 364.271 9.45376 364.255ZM9.50337 501.29C54.9418 501.273 86.662 473.402 86.6476 433.518C86.6331 393.634 54.8927 365.776 9.45431 365.793C-35.9841 365.809 -67.7043 393.681 -67.6899 433.574C-67.6754 473.467 -35.9351 501.306 9.50337 501.29Z" fill="#2C2F31"/>
<path d="M9.45613 370.353C52.204 370.338 82.074 396.312 82.0875 433.52C82.1009 470.728 52.2498 496.724 9.50189 496.739C-33.246 496.755 -63.116 470.78 -63.1294 433.572C-63.1429 396.365 -33.2917 370.369 9.45613 370.353ZM9.50133 495.201C51.3463 495.186 80.5593 469.827 80.5461 433.52C80.533 397.214 51.3016 371.876 9.45669 371.891C-32.3883 371.906 -61.6012 397.274 -61.5881 433.572C-61.5749 469.869 -32.3436 495.216 9.50133 495.201Z" fill="#2C2F31"/>
</g>
<path d="M60.4978 429.406C84.3024 429.398 106.083 431.165 117.339 434.019C119.4 434.546 120.65 436.639 120.131 438.696C119.603 440.762 117.506 442.01 115.435 441.483C104.754 438.774 83.7032 437.098 60.5006 437.106C37.298 437.115 16.139 438.815 5.48723 441.541C3.42618 442.06 1.31888 440.823 0.789145 438.766C0.25941 436.709 1.50816 434.607 3.56921 434.078C14.8046 431.198 36.6112 429.406 60.4978 429.397L60.4978 429.406Z" fill="#2C2F31"/>
<path d="M116.61 439.043C116.61 439.043 67.5293 429.522 4.58301 439.429C4.58301 439.429 62.6019 423.344 116.61 439.043Z" fill="white"/>
<path d="M60.6271 384.616C76.0864 384.61 89.5672 386.244 96.8827 388.571C98.2235 388.998 99.7016 390.527 99.3556 392.211C99.0188 393.895 97.6511 394.915 96.3102 394.487C89.3687 392.278 75.6965 390.909 60.6294 390.914C45.5623 390.92 31.8182 392.308 24.8965 394.531C23.556 394.951 22.1875 393.95 21.8403 392.266C21.4932 390.583 22.6417 388.907 23.9823 388.479C31.2779 386.128 45.1131 384.631 60.6272 384.625L60.6271 384.616Z" fill="#2C2F31"/>
<path d="M97.0663 392.411C97.0663 392.411 65.1873 384.641 24.2938 392.72C24.2938 392.72 61.975 379.591 97.0663 392.411Z" fill="white"/>
<path d="M78.7344 365.861L78.7327 361.274C62.0232 359.223 44.0396 365.1 44.0396 365.1C67.9072 362.743 73.5444 364.853 78.7344 365.861Z" fill="white"/>
<path d="M89.7939 358.311L80.1166 356.994L77.4145 199.044L88.3174 335.812L89.7939 358.311Z" fill="white"/>
<path d="M91.729 385.816L79.3881 383.627L79.7938 370.493L90.7574 372.401L91.729 385.816Z" fill="white"/>
<path d="M60.6881 173.001C65.522 172.999 69.4726 176.939 69.4743 181.763L69.4773 189.991C69.479 194.815 65.5313 198.757 60.6974 198.759C55.8635 198.761 51.9129 194.821 51.9112 189.997L51.9082 181.769C51.9065 176.945 55.8542 173.003 60.6881 173.001Z" fill="#2C2F31"/>
<path d="M61.0021 177.383L60.938 0.382812" stroke="#2C2F31" stroke-width="6"/>
</svg>
