<svg width="20" height="20" viewBox="0 0 20 20" fill="none" xmlns="http://www.w3.org/2000/svg">
<g id="icons / calendar">
<path id="Vector" fill-rule="evenodd" clip-rule="evenodd" d="M14.6297 1.75406C14.6297 1.50978 14.5322 1.27551 14.3585 1.10278C14.1849 0.930047 13.9494 0.833008 13.7038 0.833008C13.4582 0.833008 13.2227 0.930047 13.0491 1.10278C12.8754 1.27551 12.7779 1.50978 12.7779 1.75406H7.2223C7.2223 1.50978 7.12475 1.27551 6.95111 1.10278C6.77746 0.930047 6.54195 0.833008 6.29638 0.833008C6.05081 0.833008 5.81529 0.930047 5.64165 1.10278C5.468 1.27551 5.37045 1.50978 5.37045 1.75406H2.59267C2.3471 1.75406 2.11159 1.8511 1.93795 2.02383C1.7643 2.19656 1.66675 2.43083 1.66675 2.67511V15.5698C1.66675 16.3027 1.95941 17.0055 2.48034 17.5237C3.00127 18.0419 3.70781 18.333 4.44453 18.333H15.5556C16.2923 18.333 16.9989 18.0419 17.5198 17.5237C18.0408 17.0055 18.3334 16.3027 18.3334 15.5698V2.67511C18.3334 2.43083 18.2359 2.19656 18.0622 2.02383C17.8886 1.8511 17.6531 1.75406 17.4075 1.75406H14.6297ZM6.29638 4.51722C6.05081 4.51722 5.81529 4.42018 5.64165 4.24745C5.468 4.07472 5.37045 3.84044 5.37045 3.59617H3.5186V5.43827H16.4816V3.59617H14.6297C14.6297 3.84044 14.5322 4.07472 14.3585 4.24745C14.1849 4.42018 13.9494 4.51722 13.7038 4.51722C13.4582 4.51722 13.2227 4.42018 13.0491 4.24745C12.8754 4.07472 12.7779 3.84044 12.7779 3.59617H7.2223C7.2223 3.84044 7.12475 4.07472 6.95111 4.24745C6.77746 4.42018 6.54195 4.51722 6.29638 4.51722ZM8.14823 10.9646C7.90266 10.9646 7.66715 11.0616 7.4935 11.2344C7.31986 11.4071 7.2223 11.6414 7.2223 11.8856C7.2223 12.1299 7.31986 12.3642 7.4935 12.5369C7.66715 12.7097 7.90266 12.8067 8.14823 12.8067H11.8519C12.0975 12.8067 12.333 12.7097 12.5067 12.5369C12.6803 12.3642 12.7779 12.1299 12.7779 11.8856C12.7779 11.6414 12.6803 11.4071 12.5067 11.2344C12.333 11.0616 12.0975 10.9646 11.8519 10.9646H8.14823Z" fill="#0D0D0D"/>
</g>
</svg>
