<svg width="9" height="16" viewBox="0 0 9 16" fill="none" xmlns="http://www.w3.org/2000/svg">
<g id="Group">
<path id="Vector" d="M6.02658 11.2321C6.07924 11.2856 6.11527 11.3258 6.1513 11.3606C6.82483 12.0111 7.50113 12.6563 8.16911 13.3095C8.72345 13.8502 8.60704 14.6855 7.93629 15.0496C7.5039 15.2852 6.9551 15.2075 6.58646 14.8541C5.91848 14.2116 5.25327 13.5692 4.58806 12.924C4.55202 12.8892 4.51599 12.8571 4.4661 12.8115C4.42175 12.8517 4.3774 12.8865 4.33583 12.9267C3.66785 13.5692 3.00541 14.217 2.33465 14.8541C1.69993 15.4592 0.671621 15.1968 0.441569 14.3696C0.3307 13.9707 0.438797 13.6093 0.743686 13.3148C1.41721 12.6616 2.09628 12.0084 2.77258 11.3552C2.81139 11.3177 2.84742 11.2803 2.89731 11.2267C2.73932 11.1839 2.60351 11.1464 2.46769 11.1089C1.82466 10.9296 1.22042 10.6672 0.654991 10.3245C0.205973 10.0515 0.0174966 9.55355 0.172713 9.069C0.322385 8.60319 0.78249 8.28194 1.30357 8.31942C1.49205 8.33281 1.69716 8.39706 1.86069 8.49343C2.78367 9.03152 3.78149 9.26443 4.85137 9.18947C5.64131 9.13325 6.37581 8.89767 7.05211 8.49611C7.78107 8.06242 8.63476 8.4265 8.79552 9.23765C8.87313 9.62583 8.67079 10.0729 8.3077 10.3005C7.6508 10.71 6.93847 10.9965 6.18456 11.1839C6.1319 11.2026 6.09032 11.216 6.02658 11.2321Z" fill="#0D0D0D"/>
<path id="Vector_2" d="M4.466 0.711341C6.50044 0.684571 8.32977 2.30152 8.327 4.44318C8.32423 6.52861 6.55864 8.18304 4.41056 8.16966C2.30683 8.15627 0.574509 6.47239 0.593911 4.4057C0.610542 2.26672 2.44265 0.681893 4.466 0.711341ZM4.44937 5.9932C5.3474 5.9932 6.07082 5.31055 6.07359 4.45656C6.07636 3.58384 5.35017 2.87441 4.45491 2.87709C3.57351 2.87977 2.84177 3.58651 2.84177 4.43782C2.84177 5.29181 3.56242 5.99052 4.44937 5.9932Z" fill="#0D0D0D"/>
</g>
</svg>
