<svg width="20" height="17" viewBox="0 0 20 17" fill="none" xmlns="http://www.w3.org/2000/svg">
<g id="Group 1">
<path id="Union" fill-rule="evenodd" clip-rule="evenodd" d="M11.4949 8.59756C10.7904 10.9023 8.35084 12.1995 6.04609 11.495C3.74134 10.7904 2.44413 8.35086 3.14869 6.04611C3.85326 3.74136 6.29279 2.44415 8.59754 3.14871C10.9023 3.85328 12.1995 6.29281 11.4949 8.59756ZM10.9142 11.9569C9.45983 13.0821 7.49989 13.5079 5.60757 12.9294C2.51058 11.9827 0.767474 8.70458 1.71422 5.60759C2.66097 2.5106 5.93907 0.767493 9.03606 1.71424C12.133 2.66099 13.8762 5.93909 12.9294 9.03608C12.7187 9.72533 12.3925 10.3475 11.9786 10.8879L16.4773 14.505C16.8001 14.7645 16.8514 15.2366 16.5918 15.5594C16.3323 15.8822 15.8602 15.9335 15.5374 15.674L10.9142 11.9569Z" fill="white"/>
</g>
</svg>
