<svg width="21" height="20" viewBox="0 0 21 20" fill="none" xmlns="http://www.w3.org/2000/svg">
<g id="icons / soc / tg">
<path id="Vector" d="M17.4778 4.26242C17.4111 4.1008 17.3445 4.0604 17.2556 4.0402C17.0112 3.93918 16.6113 4.0604 16.6113 4.0604C16.6113 4.0604 2.59244 8.64634 1.79263 9.1514C1.61489 9.25241 1.57046 9.33322 1.52603 9.39382C1.39273 9.75747 1.81485 9.91909 1.81485 9.91909L5.43621 10.9898C5.43621 10.9898 5.56951 11.01 5.61394 10.9898C6.43597 10.5252 13.8786 6.24225 14.3008 6.10084C14.3674 6.08063 14.4118 6.10084 14.4118 6.14124C14.2341 6.68671 7.76898 11.9191 7.76898 11.9191C7.76898 11.9191 7.74677 11.9393 7.72455 11.9797L7.3913 15.2323C7.3913 15.2323 7.25799 16.2222 8.34662 15.2323C9.12422 14.5252 9.87959 13.9394 10.2351 13.6565C11.5014 14.4242 12.8344 15.2929 13.4121 15.7374C13.7009 15.9596 13.9453 16 14.1452 16C14.7007 15.9798 14.8562 15.4343 14.8562 15.4343C14.8562 15.4343 17.3889 6.08063 17.4778 4.82809C17.4778 4.70687 17.5 4.62606 17.5 4.54525C17.5 4.42404 17.5 4.32303 17.4778 4.26242Z" fill="#0D0D0D"/>
</g>
</svg>
