<svg width="21" height="20" viewBox="0 0 21 20" fill="none" xmlns="http://www.w3.org/2000/svg">
<g id="icons / soc / vk">
<path id="Vector" d="M18.4853 15.1578H16.5845C15.8653 15.1578 15.6487 14.5753 14.3595 13.2853C13.2328 12.1995 12.757 12.0645 12.472 12.0645C12.0778 12.0645 11.9703 12.1728 11.9703 12.7153V14.4253C11.9703 14.8878 11.8203 15.1586 10.612 15.1586C9.43974 15.0799 8.30296 14.7237 7.2953 14.1196C6.28764 13.5154 5.43793 12.6805 4.81616 11.6836C3.33982 9.84614 2.31258 7.68952 1.81616 5.38528C1.81616 5.10028 1.9245 4.84195 2.46783 4.84195H4.36783C4.85616 4.84195 5.032 5.05945 5.22366 5.56195C6.14616 8.27695 7.72033 10.6386 8.3595 10.6386C8.6045 10.6386 8.71116 10.5303 8.71116 9.91945V7.12278C8.63033 5.84695 7.95283 5.73945 7.95283 5.27778C7.9614 5.15599 8.01711 5.04232 8.10814 4.96095C8.19917 4.87957 8.31833 4.83688 8.44033 4.84195H11.427C11.8353 4.84195 11.9703 5.04528 11.9703 5.53362V9.30862C11.9703 9.71612 12.1453 9.85112 12.2687 9.85112C12.5137 9.85112 12.702 9.71612 13.1512 9.26778C14.114 8.09361 14.9005 6.78542 15.4862 5.38445C15.5461 5.21625 15.6594 5.07226 15.8088 4.97447C15.9582 4.87667 16.1355 4.83042 16.3137 4.84278H18.2145C18.7845 4.84278 18.9053 5.12778 18.7845 5.53445C18.0931 7.08313 17.2377 8.5532 16.2328 9.91945C16.0278 10.232 15.9462 10.3945 16.2328 10.7611C16.4212 11.0461 17.0878 11.6028 17.5353 12.132C18.187 12.782 18.7278 13.5336 19.137 14.357C19.3003 14.887 19.0278 15.1578 18.4853 15.1578Z" fill="#0D0D0D"/>
</g>
</svg>
